Fungal-Grow 600 Thickness 0.ufo
<glyph name="l" format="1">
  <advance width="569"/>
  <unicode hex="006C"/>
  <outline>
    <contour>
      <point x="193" y="1556" type="line"/>
      <point x="377" y="1556" type="line"/>
      <point x="377" y="0" type="line"/>
      <point x="193" y="0" type="line"/>
      <point x="193" y="1556" type="line"/>
    </contour>
    <component base="blob1" xScale="1.0229" yScale="-1.0229" xOffset="508" yOffset="1551"/>
    <component base="blob2" xScale="1.2309" yScale="-1.2309" xOffset="741" yOffset="1659"/>
    <component base="blob3" yScale="-1" xOffset="1011" yOffset="1560"/>
    <component base="blob4" xScale="0.6152" yScale="-0.6152" xOffset="1186" yOffset="1677"/>
    <component base="blob5" yScale="-1" xOffset="1352" yOffset="1736"/>
    <component base="blob6" xScale="1.1539" yScale="-1.1539" xOffset="1433" yOffset="1999"/>
    <component base="blob7" xScale="0.5898" yScale="-0.5898" xOffset="1328" yOffset="2174"/>
    <component base="blob8" xScale="0.7047" yScale="-0.7047" xOffset="1250" yOffset="2295"/>
    <component base="blob9" xScale="0.4869" yScale="-0.4869" xOffset="1271" yOffset="2436"/>
    <component base="blob2" xScale="0.7721" yScale="-0.7721" xOffset="270" yOffset="1240"/>
    <component base="blob3" xScale="0.8587" yScale="-0.8587" xOffset="201" yOffset="935"/>
    <component base="blob4" xScale="0.6152" yScale="-0.6152" xOffset="391" yOffset="642"/>
    <component base="blob5" yScale="-1" xOffset="499" yOffset="296"/>
    <component base="blob6" xScale="0.8237" yScale="-0.8237" xOffset="304" yOffset="-18"/>
    <component base="blob7" xScale="0.5898" yScale="-0.5898" xOffset="23" yOffset="-118"/>
    <component base="blob8" xScale="0.7047" yScale="-0.7047" xOffset="-200" yOffset="-32"/>
    <component base="blob9" xScale="0.3027" yScale="-0.3027" xOffset="-238" yOffset="186"/>
    <contour>
      <point x="278" y="1520" type="move" name="above"/>
    </contour>
    <contour>
      <point x="278" y="0" type="move" name="below"/>
    </contour>
    <contour>
      <point x="0" y="1520" type="move" name="half"/>
    </contour>
  </outline>
</glyph>
<glyph name="q" format="1">
  <advance width="1300"/>
  <unicode hex="0071"/>
  <outline>
    <contour>
      <point x="303" y="559" type="curve"/>
      <point x="303" y="559" type="line"/>
      <point x="303" y="288.333"/>
      <point x="421.333" y="125"/>
      <point x="616" y="125" type="curve" smooth="yes"/>
      <point x="810.667" y="125"/>
      <point x="930" y="288.333"/>
      <point x="930" y="559" type="curve" smooth="yes"/>
      <point x="930" y="829.667"/>
      <point x="810.667" y="993"/>
      <point x="616" y="993" type="curve" smooth="yes"/>
      <point x="421.333" y="993"/>
      <point x="303" y="829.667"/>
    </contour>
    <contour>
      <point x="930" y="168" type="line"/>
      <point x="852.667" y="34.667"/>
      <point x="736.333" y="-29"/>
      <point x="571" y="-29" type="curve" smooth="yes"/>
      <point x="300.333" y="-29"/>
      <point x="113" y="207"/>
      <point x="113" y="559" type="curve" smooth="yes"/>
      <point x="113" y="911"/>
      <point x="300.333" y="1147"/>
      <point x="571" y="1147" type="curve" smooth="yes"/>
      <point x="736.333" y="1147"/>
      <point x="852.667" y="1083.333"/>
      <point x="930" y="950" type="curve"/>
      <point x="930" y="1120" type="line"/>
      <point x="1114" y="1120" type="line"/>
      <point x="1114" y="-426" type="line"/>
      <point x="930" y="-426" type="line"/>
      <point x="930" y="168" type="line"/>
    </contour>
    <component base="blob1" xScale="0" xyScale="1.2886" yScale="0" yxScale="-1.2886" xOffset="604" yOffset="329"/>
    <component base="blob2" xScale="0" xyScale="1" yScale="0" yxScale="-1" xOffset="115" yOffset="127"/>
    <component base="blob3" xScale="0" xyScale="1" yScale="0" yxScale="-1" xOffset="-299" yOffset="-108"/>
    <component base="blob4" xScale="0" xyScale="0.8783" yScale="0" yxScale="-0.8783" xOffset="-666" yOffset="-304"/>
    <component base="blob5" xScale="0" xyScale="1" yScale="0" yxScale="-1" xOffset="-1077" yOffset="-269"/>
    <component base="blob6" xScale="0" xyScale="1.1539" yScale="0" yxScale="-1.1539" xOffset="-1543" yOffset="-149"/>
    <component base="blob7" xScale="0" xyScale="0.9753" yScale="0" yxScale="-0.9753" xOffset="-1881" yOffset="-422"/>
    <component base="blob8" xScale="0" xyScale="0.7047" yScale="0" yxScale="-0.7047" xOffset="-2169" yOffset="-657"/>
    <component base="blob9" xScale="0" xyScale="0.4869" yScale="0" yxScale="-0.4869" xOffset="-2306" yOffset="-902"/>
    <contour>
      <point x="623" y="1147" type="move" name="above"/>
    </contour>
    <contour>
      <point x="648" y="-430" type="move" name="below"/>
    </contour>
    <contour>
      <point x="0" y="1520" type="move" name="half"/>
    </contour>
  </outline>
</glyph>
<glyph name="hbar" format="1">
  <advance width="1423"/>
  <unicode hex="0127"/>
  <outline>
    <contour>
      <point x="1183" y="676" type="qcurve" smooth="yes"/>
      <point x="1183" y="0" type="line"/>
      <point x="999" y="0" type="line"/>
      <point x="999" y="670" type="line" smooth="yes"/>
      <point x="999" y="829"/>
      <point x="875" y="987"/>
      <point x="751" y="987" type="qcurve" smooth="yes"/>
      <point x="602" y="987"/>
      <point x="430" y="797"/>
      <point x="430" y="633" type="qcurve" smooth="yes"/>
      <point x="430" y="0" type="line"/>
      <point x="245" y="0" type="line"/>
      <point x="245" y="1270" type="line"/>
      <point x="120" y="1270" type="line"/>
      <point x="120" y="1434" type="line"/>
      <point x="245" y="1434" type="line"/>
      <point x="245" y="1556" type="line"/>
      <point x="430" y="1556" type="line"/>
      <point x="430" y="1434" type="line"/>
      <point x="782" y="1434" type="line"/>
      <point x="782" y="1270" type="line"/>
      <point x="430" y="1270" type="line"/>
      <point x="430" y="946" type="line"/>
      <point x="496" y="1047"/>
      <point x="675" y="1147"/>
      <point x="792" y="1147" type="qcurve" smooth="yes"/>
      <point x="985" y="1147"/>
      <point x="1183" y="908"/>
    </contour>
    <contour>
      <point x="337" y="1520" type="move" name="above"/>
    </contour>
    <contour>
      <point x="720" y="0" type="move" name="below"/>
    </contour>
  </outline>
</glyph>
<glyph name="uni0191" format="1">
  <advance width="1178"/>
  <unicode hex="0191"/>
  <outline>
    <contour>
      <point x="201" y="1493" type="line"/>
      <point x="1059" y="1493" type="line"/>
      <point x="1059" y="1323" type="line"/>
      <point x="403" y="1323" type="line"/>
      <point x="403" y="883" type="line"/>
      <point x="995" y="883" type="line"/>
      <point x="995" y="713" type="line"/>
      <point x="403" y="713" type="line"/>
      <point x="403" y="104" type="line" smooth="yes"/>
      <point x="403" y="-166.005"/>
      <point x="197.996" y="-410"/>
      <point x="-29" y="-410" type="qcurve" smooth="yes"/>
      <point x="-106" y="-410" type="line"/>
      <point x="-106" y="-240" type="line"/>
      <point x="-43" y="-240" type="line" smooth="yes"/>
      <point x="91" y="-240"/>
      <point x="201" y="-90"/>
      <point x="201" y="104" type="qcurve" smooth="yes"/>
    </contour>
    <contour>
      <point x="670" y="1520" type="move" name="above"/>
    </contour>
  </outline>
</glyph>
<glyph name="uni0268" format="1">
  <advance width="569"/>
  <unicode hex="0268"/>
  <outline>
    <contour>
      <point x="194" y="1120" type="line"/>
      <point x="378" y="1120" type="line"/>
      <point x="378" y="616" type="line"/>
      <point x="542" y="616" type="line"/>
      <point x="542" y="452" type="line"/>
      <point x="378" y="452" type="line"/>
      <point x="378" y="0" type="line"/>
      <point x="194" y="0" type="line"/>
      <point x="194" y="452" type="line"/>
      <point x="14" y="452" type="line"/>
      <point x="14" y="616" type="line"/>
      <point x="194" y="616" type="line"/>
    </contour>
    <contour>
      <point x="194" y="1556" type="line"/>
      <point x="378" y="1556" type="line"/>
      <point x="378" y="1323" type="line"/>
      <point x="194" y="1323" type="line"/>
    </contour>
    <contour>
      <point x="286" y="1583" type="move" name="above"/>
    </contour>
    <contour>
      <point x="286" y="0" type="move" name="below"/>
    </contour>
    <contour>
      <point x="286" y="0" type="move" name="cedilla"/>
    </contour>
    <contour>
      <point x="0" y="1520" type="move" name="half"/>
    </contour>
    <contour>
      <point x="324" y="0" type="move" name="ogonek"/>
    </contour>
  </outline>
</glyph>
<glyph name="uni033B" format="1">
  <advance width="0"/>
  <unicode hex="033B"/>
  <outline>
    <contour>
      <point x="-285" y="-42" type="line"/>
      <point x="-285" y="-492" type="line"/>
      <point x="-735" y="-492" type="line"/>
      <point x="-735" y="-42" type="line"/>
    </contour>
    <contour>
      <point x="-405" y="-372" type="line"/>
      <point x="-405" y="-162" type="line"/>
      <point x="-615" y="-162" type="line"/>
      <point x="-615" y="-372" type="line"/>
    </contour>
    <contour>
      <point x="-510" y="-1" type="move" name="_Ligature below"/>
    </contour>
    <contour>
      <point x="-510" y="-1" type="move" name="_below"/>
    </contour>
    <contour>
      <point x="-510" y="0" type="move" name="_below-mark"/>
    </contour>
    <contour>
      <point x="-510" y="-493" type="move" name="below-mark"/>
    </contour>
  </outline>
</glyph>
<glyph name="uni0352" format="1">
  <advance width="0"/>
  <unicode hex="0352"/>
  <outline>
    <component base="uni0311" yOffset="144"/>
    <component base="uni0307" yOffset="-27"/>
    <contour>
      <point x="-512" y="1147" type="move" name="_above"/>
    </contour>
    <contour>
      <point x="-512" y="1282" type="move" name="_above-mark"/>
    </contour>
    <contour>
      <point x="-512" y="1754" type="move" name="above-mark"/>
    </contour>
  </outline>
</glyph>
<glyph name="uni035D" format="1">
  <advance width="0"/>
  <unicode hex="035D"/>
  <outline>
    <component base="uni203F" xOffset="-823" yOffset="2128"/>
    <contour>
      <point x="0" y="1902" type="move" name="above-mark"/>
    </contour>
  </outline>
</glyph>
<glyph name="uni041C" format="1">
  <advance width="1767"/>
  <unicode hex="041C"/>
  <outline>
    <component base="M"/>
    <contour>
      <point x="883" y="1520" type="move" name="above"/>
    </contour>
  </outline>
</glyph>
<glyph name="uni0625" format="1">
  <advance width="569"/>
  <unicode hex="0625"/>
  <outline>
    <component base="uni0655" xOffset="-227"/>
    <component base="uni0627"/>
    <contour>
      <point x="285" y="1650" type="move" name="rtl-above"/>
    </contour>
    <contour>
      <point x="285" y="-550" type="move" name="rtl-below"/>
    </contour>
  </outline>
</glyph>
<glyph name="uni064D" format="1">
  <advance width="0"/>
  <unicode hex="064D"/>
  <outline>
    <contour>
      <point x="220" y="-490" type="line"/>
      <point x="220" y="-380" type="line"/>
      <point x="804" y="-250" type="line"/>
      <point x="804" y="-360" type="line"/>
    </contour>
    <contour>
      <point x="220" y="-250" type="line"/>
      <point x="220" y="-140" type="line"/>
      <point x="804" y="-10" type="line"/>
      <point x="804" y="-120" type="line"/>
    </contour>
    <contour>
      <point x="512" y="0" type="move" name="_Ligature rtl-below"/>
    </contour>
    <contour>
      <point x="512" y="0" type="move" name="_rtl-below"/>
    </contour>
    <contour>
      <point x="512" y="0" type="move" name="_rtl-below-mark"/>
    </contour>
    <contour>
      <point x="512" y="-500" type="move" name="rtl-below-mark"/>
    </contour>
  </outline>
</glyph>
<glyph name="uni0683" format="1">
  <advance width="1322"/>
  <unicode hex="0683"/>
  <outline>
    <component base="uni062D"/>
    <component base="arabic_2dots" xOffset="650" yOffset="25"/>
    <contour>
      <point x="650" y="1000" type="move" name="rtl-above"/>
    </contour>
    <contour>
      <point x="812" y="-600" type="move" name="rtl-below"/>
    </contour>
  </outline>
</glyph>
<glyph name="uni06B7" format="1">
  <advance width="1488"/>
  <unicode hex="06B7"/>
  <outline>
    <component base="uni0644"/>
    <component base="arabic_3dots" xOffset="1000" yOffset="1700"/>
    <contour>
      <point x="1212" y="2150" type="move" name="rtl-above"/>
    </contour>
    <contour>
      <point x="700" y="-450" type="move" name="rtl-below"/>
    </contour>
  </outline>
</glyph>
<glyph name="uni1D2B" format="1">
  <advance width="1309"/>
  <unicode hex="1D2B"/>
  <outline>
    <component base="uni043B"/>
    <contour>
      <point x="760" y="1147" type="move" name="above"/>
    </contour>
  </outline>
</glyph>
<glyph name="uni1DC7" format="1">
  <advance width="0"/>
  <unicode hex="1DC7"/>
  <outline>
    <contour>
      <point x="-688" y="1638" type="line"/>
      <point x="-91" y="1638" type="line"/>
      <point x="-91" y="1490" type="line"/>
      <point x="-626" y="1490" type="line"/>
      <point x="-794" y="1262" type="line"/>
      <point x="-933" y="1262" type="line"/>
    </contour>
    <contour>
      <point x="-512" y="1147" type="move" name="_above"/>
    </contour>
    <contour>
      <point x="-512" y="1282" type="move" name="_above-mark"/>
    </contour>
    <contour>
      <point x="-512" y="1556" type="move" name="above-mark"/>
    </contour>
  </outline>
</glyph>
<glyph name="uni20D0" format="1">
  <advance width="0"/>
  <unicode hex="20D0"/>
  <outline>
    <contour>
      <point x="-1005.83" y="1301" type="line"/>
      <point x="-788" y="1556" type="line"/>
      <point x="-662" y="1556" type="line"/>
      <point x="-794" y="1401" type="line"/>
      <point x="-53" y="1401" type="line"/>
      <point x="-53" y="1301" type="line"/>
    </contour>
    <contour>
      <point x="-512" y="1147" type="move" name="_above"/>
    </contour>
    <contour>
      <point x="-512" y="1282" type="move" name="_above-mark"/>
    </contour>
    <contour>
      <point x="-512" y="1556" type="move" name="above-mark"/>
    </contour>
  </outline>
</glyph>
<glyph name="uniFB8A" format="1">
  <advance width="989"/>
  <unicode hex="FB8A"/>
  <outline>
    <component base="arabic_3dots" xOffset="500" yOffset="800"/>
    <component base="uni0631"/>
    <contour>
      <point x="700" y="1250" type="move" name="rtl-above"/>
    </contour>
    <contour>
      <point x="500" y="-500" type="move" name="rtl-below"/>
    </contour>
  </outline>
</glyph>
<glyph name="uniFBAC" format="1">
  <advance width="1080"/>
  <unicode hex="FBAC"/>
  <outline>
    <component base="uniFEEB"/>
    <contour>
      <point x="500" y="1100" type="move" name="rtl-above"/>
    </contour>
    <contour>
      <point x="450" y="-150" type="move" name="rtl-below"/>
    </contour>
  </outline>
</glyph>
<glyph name="uniFEB9" format="1">
  <advance width="2476"/>
  <unicode hex="FEB9"/>
  <outline>
    <component base="uni0635"/>
    <contour>
      <point x="600" y="800" type="move" name="rtl-above"/>
    </contour>
    <contour>
      <point x="600" y="-600" type="move" name="rtl-below"/>
    </contour>
  </outline>
</glyph>
<glyph name="u1D544" format="1">
  <advance width="2099"/>
  <unicode hex="1D544"/>
  <outline>
    <contour>
      <point x="1501" y="0" type="line"/>
      <point x="1501" y="1393" type="line"/>
      <point x="1084" y="287" type="line"/>
      <point x="1013" y="287" type="line"/>
      <point x="599" y="1393" type="line"/>
      <point x="598" y="0" type="line"/>
      <point x="196" y="0" type="line"/>
      <point x="196" y="1493" type="line"/>
      <point x="668" y="1493" type="line"/>
      <point x="1049" y="477" type="line"/>
      <point x="1432" y="1493" type="line"/>
      <point x="1903" y="1493" type="line"/>
      <point x="1903" y="0" type="line"/>
    </contour>
    <contour>
      <point x="1601" y="1393" type="line"/>
      <point x="1601" y="100" type="line"/>
      <point x="1803" y="100" type="line"/>
      <point x="1803" y="1393" type="line"/>
    </contour>
    <contour>
      <point x="296" y="1393" type="line"/>
      <point x="296" y="100" type="line"/>
      <point x="498" y="100" type="line"/>
      <point x="498" y="1393" type="line"/>
    </contour>
    <contour>
      <point x="1049" y="1520" type="move" name="above"/>
    </contour>
    <contour>
      <point x="1049" y="0" type="move" name="below"/>
    </contour>
  </outline>
</glyph>
<glyph name="Grave" format="1">
  <advance width="0"/>
  <outline>
    <contour>
      <point x="-569" y="1526" type="line"/>
      <point x="-373" y="1262" type="line"/>
      <point x="-526" y="1262" type="line"/>
      <point x="-756" y="1526" type="line"/>
    </contour>
    <contour>
      <point x="-512" y="1147" type="move" name="_above"/>
    </contour>
    <contour>
      <point x="-512" y="1147" type="move" name="_above-mark"/>
    </contour>
  </outline>
</glyph>
<glyph name="uni069F.init" format="1">
  <advance width="1630"/>
  <outline>
    <component base="uniFEC3"/>
    <component base="arabic_3dots" xOffset="636" yOffset="850"/>
    <contour>
      <point x="339" y="1650" type="move" name="rtl-above"/>
    </contour>
    <contour>
      <point x="339" y="-150" type="move" name="rtl-below"/>
    </contour>
  </outline>
</glyph>
<glyph name="uni06A3.fina" format="1">
  <advance width="2120"/>
  <outline>
    <component base="uni06A1.fina"/>
    <component base="arabic_dot" xOffset="1525" yOffset="950"/>
    <component base="arabic_dot" xOffset="875" yOffset="-350"/>
    <contour>
      <point x="700" y="1100" type="move" name="rtl-above"/>
    </contour>
    <contour>
      <point x="950" y="-400" type="move" name="rtl-below"/>
    </contour>
  </outline>
</glyph>
